<?xml version="1.0" standalone="no"?>
<!DOCTYPE svg PUBLIC "-//W3C//DTD SVG 20010904//EN"
 "http://www.w3.org/TR/2001/REC-SVG-20010904/DTD/svg10.dtd">
<svg version="1.0" xmlns="http://www.w3.org/2000/svg"
 width="48.000000pt" height="48.000000pt" viewBox="0 0 48.000000 48.000000"
 preserveAspectRatio="xMidYMid meet">

<g transform="translate(0.000000,48.000000) scale(0.100000,-0.100000)"
fill="#000000" stroke="none">
<path d="M5 467 c-3 -7 -4 -114 -3 -237 l3 -225 128 -3 128 -3 -3 93 -3 93
-33 3 c-31 3 -33 6 -30 35 3 28 7 32 36 35 31 3 32 4 32 51 0 56 23 87 74 96
55 11 71 4 71 -30 0 -24 -5 -31 -25 -33 -36 -5 -50 -20 -50 -53 0 -27 3 -29
36 -29 34 0 35 -1 32 -32 -3 -29 -7 -33 -35 -36 l-33 -3 0 -95 0 -95 73 3 72
3 0 235 0 235 -233 3 c-183 2 -234 0 -237 -11z"/>
</g>
</svg>
