<?xml version="1.0" standalone="no"?>
<!DOCTYPE svg PUBLIC "-//W3C//DTD SVG 20010904//EN"
 "http://www.w3.org/TR/2001/REC-SVG-20010904/DTD/svg10.dtd">
<svg version="1.0" xmlns="http://www.w3.org/2000/svg"
 width="16.000000pt" height="16.000000pt" viewBox="0 0 16.000000 16.000000"
 preserveAspectRatio="xMidYMid meet">

<g transform="translate(0.000000,16.000000) scale(0.100000,-0.100000)"
fill="#000000" stroke="none">
<path d="M44 148 c-24 -11 -44 -48 -44 -79 0 -21 47 -75 57 -65 3 3 -3 13 -13
23 -11 10 -15 15 -10 11 20 -16 28 -7 11 12 -12 13 -15 27 -11 45 5 21 12 25
46 25 34 0 41 -4 46 -25 4 -17 1 -32 -11 -45 -9 -10 -15 -27 -13 -37 3 -16 7
-15 31 9 41 40 31 104 -20 127 -29 13 -41 13 -69 -1z"/>
</g>
</svg>
