<?xml version="1.0" standalone="no"?>
<!DOCTYPE svg PUBLIC "-//W3C//DTD SVG 20010904//EN"
 "http://www.w3.org/TR/2001/REC-SVG-20010904/DTD/svg10.dtd">
<svg version="1.0" xmlns="http://www.w3.org/2000/svg"
 width="48.000000pt" height="48.000000pt" viewBox="0 0 48.000000 48.000000"
 preserveAspectRatio="xMidYMid meet">

<g transform="translate(0.000000,48.000000) scale(0.100000,-0.100000)"
fill="#000000" stroke="none">
<path d="M127 471 c-54 -11 -107 -66 -118 -122 -11 -57 -10 -162 0 -219 7 -33
20 -54 49 -81 34 -33 48 -38 107 -44 153 -17 249 10 292 80 27 44 27 266 0
310 -37 61 -75 77 -189 81 -57 1 -120 -1 -141 -5z m234 -110 c28 -28 29 -33
29 -121 0 -88 -1 -93 -29 -121 -28 -28 -33 -29 -121 -29 -88 0 -93 1 -121 29
-28 28 -29 33 -29 121 0 88 1 93 29 121 28 28 33 29 121 29 88 0 93 -1 121
-29z"/>
<path d="M140 340 c-17 -17 -20 -33 -20 -100 0 -109 11 -120 120 -120 109 0
120 11 120 120 0 67 -3 83 -20 100 -17 17 -33 20 -100 20 -67 0 -83 -3 -100
-20z m195 -21 c0 -7 -8 -15 -17 -17 -18 -3 -25 18 -11 32 10 10 28 1 28 -15z
m-44 -28 c32 -32 35 -47 18 -85 -16 -35 -61 -52 -98 -37 -28 12 -51 47 -51 77
0 23 55 74 80 74 12 0 35 -13 51 -29z"/>
<path d="M210 270 c-11 -11 -20 -24 -20 -30 0 -5 9 -19 20 -30 11 -11 25 -20
30 -20 6 0 19 9 30 20 11 11 20 25 20 30 0 6 -9 19 -20 30 -11 11 -24 20 -30
20 -5 0 -19 -9 -30 -20z"/>
</g>
</svg>
