<?xml version="1.0" standalone="no"?>
<!DOCTYPE svg PUBLIC "-//W3C//DTD SVG 20010904//EN"
 "http://www.w3.org/TR/2001/REC-SVG-20010904/DTD/svg10.dtd">
<svg version="1.0" xmlns="http://www.w3.org/2000/svg"
 width="100.000000pt" height="100.000000pt" viewBox="0 0 100.000000 100.000000"
 preserveAspectRatio="xMidYMid meet">

<g transform="translate(0.000000,100.000000) scale(0.100000,-0.100000)"
fill="#000000" stroke="none">
<path d="M380 956 c-25 -7 -58 -19 -73 -28 l-29 -14 29 -34 c20 -24 23 -32 11
-27 -12 4 -18 2 -18 -7 0 -17 -25 -27 -45 -20 -11 5 -13 2 -9 -10 8 -20 7 -21
54 9 22 14 45 25 51 25 6 0 1 8 -12 18 -28 24 -20 55 13 50 17 -2 23 -10 23
-29 0 -21 3 -25 23 -21 14 3 21 10 18 18 -3 7 0 15 7 18 9 3 9 5 0 5 -20 1
-15 31 5 31 13 0 14 -2 4 -9 -11 -7 -10 -10 3 -15 23 -9 25 -8 25 8 0 27 20
28 30 2 10 -27 22 -35 19 -13 -3 26 2 37 16 37 8 0 15 -8 15 -17 1 -16 2 -16
13 -2 8 11 18 14 32 8 20 -8 20 -8 0 -8 -17 -1 -17 -3 -5 -11 12 -8 12 -10 -5
-10 -19 -1 -19 -1 -1 -11 15 -9 16 -13 5 -20 -10 -6 -8 -9 9 -9 45 0 133 -53
188 -113 30 -32 54 -52 54 -44 0 8 11 19 24 25 20 9 25 8 30 -5 4 -9 4 -18 1
-21 -3 -3 -5 0 -5 6 0 7 -4 12 -10 12 -5 0 -6 -7 -3 -17 4 -11 3 -14 -5 -9 -7
4 -12 1 -12 -9 0 -9 -4 -14 -10 -10 -5 3 -1 -14 10 -37 55 -128 23 -291 -79
-398 -38 -40 -40 -41 -68 -27 -15 8 -36 24 -46 35 -17 19 -17 22 -3 51 9 16
16 32 16 35 0 11 -218 0 -232 -12 -12 -10 -17 -10 -27 1 -6 8 -9 16 -6 19 3 2
-2 5 -10 5 -8 0 -12 -4 -9 -9 3 -4 1 -8 -3 -8 -5 0 -19 20 -32 44 -20 35 -23
52 -18 92 5 35 2 54 -8 68 -10 13 -15 15 -15 6 0 -7 -3 -11 -6 -8 -3 4 -1 16
5 27 9 15 8 26 -1 41 -11 17 -10 25 2 48 17 29 16 77 -1 51 -7 -11 -9 -11 -9
4 0 9 4 17 8 17 5 0 27 22 49 49 37 46 41 49 56 33 10 -9 17 -11 17 -5 0 7 -5
15 -12 19 -8 5 -6 10 8 16 13 6 8 7 -17 4 -41 -5 -109 -44 -109 -63 0 -7 -4
-13 -8 -13 -10 0 -31 -46 -58 -127 -10 -29 -36 -72 -61 -99 -24 -27 -43 -52
-43 -57 0 -4 21 -5 48 -1 26 5 57 8 69 9 13 0 22 5 22 10 -3 26 2 45 12 45 7
0 8 -11 4 -30 -8 -35 1 -55 19 -41 8 7 12 5 12 -9 0 -10 -3 -17 -6 -15 -3 2
-4 -30 -2 -71 4 -73 3 -74 -25 -85 -71 -27 -79 -25 -109 27 -16 27 -30 53 -31
59 -15 65 -18 88 -17 135 2 76 18 130 58 189 18 27 28 47 21 44 -7 -2 -24 10
-36 27 l-23 31 -19 -23 c-108 -136 -127 -339 -46 -499 58 -117 208 -236 303
-242 19 -2 38 -6 42 -10 9 -9 138 -9 147 -1 4 4 20 8 36 9 57 5 160 62 220
123 184 183 188 469 10 657 -112 119 -305 173 -459 131z m299 -54 c11 -20 -2
-42 -25 -42 -18 0 -35 26 -28 44 8 22 41 20 53 -2z m81 -37 c6 -8 9 -19 5 -24
-4 -7 0 -8 11 -4 14 5 15 3 5 -15 -13 -24 -2 -29 17 -10 9 9 16 7 32 -7 23
-21 28 -44 5 -25 -13 11 -14 10 -9 -4 5 -12 2 -15 -10 -10 -12 5 -15 2 -10
-12 4 -11 -7 -3 -24 16 -16 19 -27 39 -24 44 3 5 0 6 -7 2 -7 -5 -21 0 -31 9
-15 14 -17 22 -9 36 12 23 32 24 49 4z m-607 -102 c-17 -6 -17 -33 0 -33 7 0
18 5 25 12 9 9 12 9 12 0 0 -6 -9 -17 -20 -24 -11 -7 -20 -23 -20 -35 0 -18
-6 -23 -25 -23 -14 0 -28 7 -31 15 -9 23 15 47 40 39 17 -5 19 -4 9 7 -19 19
-16 49 5 48 10 0 12 -3 5 -6z m747 -73 c0 -5 -7 -10 -15 -10 -8 0 -15 -5 -15
-11 0 -7 10 -9 28 -5 26 6 26 6 8 -9 -25 -19 -42 -19 -50 0 -3 8 4 21 17 30
25 18 27 18 27 5z m-775 -66 c0 -5 -12 -10 -27 -12 -16 -2 -28 1 -28 7 0 6 7
11 16 11 14 0 15 2 3 17 -13 17 -13 17 11 2 14 -9 25 -20 25 -25z m804 -30
c-11 -13 -11 -18 -1 -21 19 -7 14 -19 -14 -32 -23 -10 -25 -10 -19 9 4 13 2
20 -7 21 -7 0 -4 4 7 9 18 7 19 8 3 15 -25 10 -22 23 5 27 31 5 43 -8 26 -28z
m-835 -20 c19 -7 21 -50 4 -57 -18 -6 -48 11 -48 26 0 7 5 18 12 25 14 14 12
14 32 6z m826 -62 c17 11 40 5 29 -7 -12 -11 -52 -9 -55 3 -1 7 0 8 2 3 4 -7
12 -6 24 1z m-806 -68 c3 -32 2 -53 -1 -46 -4 10 -8 9 -17 -4 -7 -9 -18 -14
-24 -10 -18 11 -14 26 6 27 13 0 12 2 -5 9 -13 5 -23 16 -23 25 0 18 20 21 21
3 0 -9 2 -9 6 1 5 11 7 11 14 0 7 -11 9 -10 9 4 0 12 -8 17 -26 17 -14 0 -23
4 -19 10 3 6 15 10 26 10 10 0 19 5 19 12 0 6 2 9 5 7 2 -3 7 -32 9 -65z m802
26 c14 13 34 6 34 -12 0 -5 -7 -8 -15 -5 -8 4 -17 2 -20 -3 -4 -6 1 -10 9 -10
10 0 16 -8 15 -22 0 -22 -1 -22 -9 -3 -5 11 -9 14 -9 8 -1 -7 -6 -13 -12 -13
-5 0 -7 5 -4 10 3 6 1 10 -4 10 -6 0 -11 -9 -11 -20 0 -11 6 -20 14 -20 8 0
18 -5 22 -11 4 -8 -1 -9 -17 -4 -33 10 -32 8 -24 62 4 26 10 42 12 35 4 -10 8
-10 19 -2z m-392 -164 c59 -6 67 -12 28 -21 -35 -7 -112 11 -112 26 0 6 8 8
18 5 9 -3 39 -8 66 -10z m-237 -59 l-14 -26 -22 20 c-24 23 -21 40 3 20 12
-10 17 -8 27 11 7 13 14 18 16 12 2 -6 -3 -23 -10 -37z m63 -48 c0 19 4 22 23
18 12 -3 57 -9 99 -12 69 -7 76 -9 62 -23 -20 -19 -100 -34 -139 -26 -38 8
-105 42 -105 53 0 21 16 19 37 -6 l22 -28 1 24z m276 -34 c-22 -17 -46 -20
-46 -6 0 5 12 12 28 14 15 2 29 5 32 5 3 1 -4 -5 -14 -13z m-175 -35 c13 -8
19 -7 19 0 0 21 24 4 31 -21 l6 -24 13 27 c15 33 36 26 63 -21 16 -27 16 -31
3 -31 -9 0 -16 -6 -17 -12 0 -10 -2 -10 -6 0 -2 6 -17 12 -32 12 -19 0 -31 7
-39 23 -10 21 -11 21 -11 1 -1 -16 -8 -21 -41 -22 l-40 -3 0 41 c0 43 12 50
51 30z"/>
<path d="M642 894 c4 -21 22 -23 26 -1 2 10 -3 17 -13 17 -10 0 -15 -6 -13
-16z"/>
<path d="M720 845 c0 -9 6 -12 15 -9 8 4 15 10 15 15 0 5 -7 9 -15 9 -8 0 -15
-7 -15 -15z"/>
<path d="M110 685 c0 -8 7 -15 15 -15 8 0 15 7 15 15 0 8 -7 15 -15 15 -8 0
-15 -7 -15 -15z"/>
<path d="M70 545 c0 -8 7 -15 15 -15 8 0 15 7 15 15 0 8 -7 15 -15 15 -8 0
-15 -7 -15 -15z"/>
<path d="M208 868 c-41 -33 -49 -43 -35 -46 11 -2 16 -9 13 -18 -4 -10 -2 -12
6 -8 8 5 9 2 5 -9 -3 -10 -2 -17 3 -17 6 0 10 5 10 11 0 8 4 8 14 0 21 -17 32
6 14 27 -32 37 -31 43 6 38 33 -4 36 -2 36 20 0 13 -5 24 -11 24 -5 0 -7 5 -4
10 11 18 -3 10 -57 -32z m52 -8 c0 -5 -2 -10 -4 -10 -3 0 -8 5 -11 10 -3 6 -1
10 4 10 6 0 11 -4 11 -10z"/>
<path d="M337 904 c-13 -13 -7 -24 14 -24 11 0 19 5 17 12 -5 14 -22 21 -31
12z"/>
<path d="M470 902 c0 -6 -8 -13 -17 -15 -10 -3 10 -5 45 -6 35 0 61 3 58 8 -3
4 -17 6 -31 3 -14 -2 -32 1 -40 8 -9 8 -15 8 -15 2z"/>
<path d="M504 851 c-83 -21 -70 -40 22 -34 72 4 78 3 103 -21 l28 -26 -5 29
c-6 43 -80 69 -148 52z"/>
<path d="M660 813 c1 -20 20 -37 29 -28 7 7 4 14 -9 23 -11 7 -20 9 -20 5z"/>
<path d="M705 780 c-3 -5 1 -13 10 -16 22 -9 29 1 11 15 -10 8 -16 9 -21 1z"/>
<path d="M450 661 c0 -12 39 -21 45 -11 3 4 -2 11 -11 14 -22 8 -34 7 -34 -3z"/>
<path d="M742 645 c-1 -16 -5 -41 -8 -55 -5 -22 -4 -23 6 -7 6 9 9 34 7 55 -3
32 -4 33 -5 7z"/>
<path d="M613 654 c-19 -8 -16 -24 5 -24 16 -1 16 -2 -2 -15 -18 -13 -15 -35
5 -35 6 0 7 5 4 11 -4 6 2 13 14 16 12 3 21 10 21 15 0 6 14 7 33 3 29 -6 30
-5 17 8 -16 17 -77 29 -97 21z"/>
<path d="M446 612 c-13 -13 -4 -22 19 -20 14 1 25 5 25 9 0 9 -37 18 -44 11z"/>
<path d="M652 591 c-16 -10 0 -27 26 -28 16 -1 22 3 20 14 -3 17 -29 25 -46
14z"/>
<path d="M580 545 c0 -15 18 -40 24 -34 3 3 -1 14 -9 25 -8 10 -14 15 -15 9z"/>
<path d="M505 480 c4 -6 11 -8 16 -5 14 9 11 15 -7 15 -8 0 -12 -5 -9 -10z"/>
<path d="M580 476 c-6 -8 -21 -17 -33 -19 -15 -3 -12 -5 10 -6 17 0 35 4 38 9
4 6 12 7 18 3 7 -4 6 0 -2 10 -16 21 -16 20 -31 3z"/>
<path d="M474 391 c4 -7 41 -11 88 -11 103 0 93 13 -14 18 -56 3 -78 1 -74 -7z"/>
</g>
</svg>
