<?xml version="1.0" standalone="no"?>
<!DOCTYPE svg PUBLIC "-//W3C//DTD SVG 20010904//EN"
 "http://www.w3.org/TR/2001/REC-SVG-20010904/DTD/svg10.dtd">
<svg version="1.0" xmlns="http://www.w3.org/2000/svg"
 width="48.000000pt" height="48.000000pt" viewBox="0 0 48.000000 48.000000"
 preserveAspectRatio="xMidYMid meet">

<g transform="translate(0.000000,48.000000) scale(0.100000,-0.100000)"
fill="#000000" stroke="none">
<path d="M50 467 c-46 -23 -51 -48 -48 -239 4 -239 -13 -223 238 -223 253 0
235 -18 235 235 0 251 16 234 -223 238 -129 2 -184 -1 -202 -11z m286 -118 c3
-6 17 -8 32 -4 23 6 24 5 11 -11 -9 -11 -9 -15 -1 -10 15 9 15 2 2 -22 -5 -9
-15 -37 -21 -62 -16 -66 -80 -126 -143 -135 -31 -5 -63 -3 -89 5 l-42 13 31 7
c52 11 60 21 30 37 -27 14 -35 33 -15 33 7 0 0 9 -15 21 -24 19 -38 58 -16 44
13 -8 13 -2 -2 30 -18 40 2 49 42 20 19 -13 50 -27 68 -31 29 -6 32 -4 32 19
0 42 76 78 96 46z"/>
</g>
</svg>
